<svg width="36" height="36" viewBox="0 0 36 36" fill="none" xmlns="http://www.w3.org/2000/svg">
<path d="M34.8558 32.627L25.695 23.4687C27.6776 21.0424 28.7714 17.9874 28.7714 14.6521C28.7714 6.79924 22.4047 0.436279 14.5517 0.436279C6.69876 0.436279 0.393555 6.80129 0.393555 14.6521C0.393555 22.503 6.75961 28.868 14.5517 28.868C17.8872 28.868 20.9472 27.7123 23.3707 25.7897L32.5314 34.948C32.9142 35.272 33.3381 35.4292 33.7551 35.4292C34.1721 35.4292 34.5946 35.269 34.9153 34.9486C35.5531 34.3083 35.5531 33.2695 34.8558 32.627ZM3.67503 14.6521C3.67503 8.6227 8.58219 3.71686 14.6132 3.71686C20.6443 3.71686 25.5515 8.6227 25.5515 14.6521C25.5515 20.6816 20.6443 25.5874 14.6132 25.5874C8.58219 25.5874 3.67503 20.6802 3.67503 14.6521Z" fill="white"/>
</svg>
