<svg width="36" height="36" viewBox="0 0 36 36" fill="none" xmlns="http://www.w3.org/2000/svg">
<path d="M18.0295 0.436279C20.3497 0.436279 22.5748 1.35796 24.2155 2.99857C25.8561 4.63918 26.7777 6.86433 26.7777 9.1845C26.7777 11.5047 25.8561 13.7298 24.2155 15.3704C22.5748 17.011 20.3497 17.9327 18.0295 17.9327C15.7094 17.9327 13.4842 17.011 11.8436 15.3704C10.203 13.7298 9.2813 11.5047 9.2813 9.1845C9.2813 6.86433 10.203 4.63918 11.8436 2.99857C13.4842 1.35796 15.7094 0.436279 18.0295 0.436279ZM18.0295 22.3068C27.6963 22.3068 35.526 26.2217 35.526 31.0551V35.4292H0.533081V31.0551C0.533081 26.2217 8.36274 22.3068 18.0295 22.3068Z" fill="white"/>
</svg>
