<svg width="45" height="45" viewBox="0 0 45 45" fill="none" xmlns="http://www.w3.org/2000/svg">
<path d="M44.3176 41.3965L32.5371 29.6191C35.0866 26.499 36.4932 22.5703 36.4932 18.2812C36.4932 8.18262 28.3058 0 18.2071 0C8.10835 0 0 8.18525 0 18.2812C0 28.3772 8.18659 36.5625 18.2071 36.5625C22.4964 36.5625 26.4314 35.0763 29.548 32.6039L41.3285 44.3812C41.8208 44.7978 42.3659 45 42.9022 45C43.4384 45 43.9817 44.794 44.3941 44.382C45.2143 43.5586 45.2143 42.2227 44.3176 41.3965ZM4.2199 18.2812C4.2199 10.5275 10.5304 4.21875 18.2862 4.21875C26.042 4.21875 32.3524 10.5275 32.3524 18.2812C32.3524 26.035 26.042 32.3438 18.2862 32.3438C10.5304 32.3438 4.2199 26.0332 4.2199 18.2812Z" fill="white"/>
</svg>
